<svg width="15" height="15" viewBox="0 0 15 15" fill="none" xmlns="http://www.w3.org/2000/svg">
<path fill-rule="evenodd" clip-rule="evenodd" d="M11.2123 4.49486C11.4076 4.2996 11.4076 3.98301 11.2123 3.78775C11.0171 3.59249 10.7005 3.59249 10.5052 3.78775L7.5 6.79295L4.4948 3.78775C4.29954 3.59249 3.98295 3.59249 3.78769 3.78775C3.59243 3.98301 3.59243 4.2996 3.78769 4.49486L6.79289 7.50006L3.78769 10.5053C3.59246 10.7005 3.59243 11.0171 3.78769 11.2124C3.98295 11.4076 4.29956 11.4076 4.4948 11.2124L7.5 8.20717L10.5052 11.2124C10.7004 11.4076 11.0171 11.4076 11.2123 11.2124C11.4076 11.0171 11.4075 10.7005 11.2123 10.5053L8.20711 7.50006L11.2123 4.49486Z" fill="white"/>
</svg>
